<svg width="25" height="25" viewBox="0 0 25 25" fill="none" xmlns="http://www.w3.org/2000/svg">
<g clip-path="url(#clip0_30_419)">
<path d="M7.31658 2.40626C8.09884 2.67125 8.84301 3.03756 9.53012 3.49585C10.5005 3.24784 11.4983 3.12324 12.4999 3.12501C13.5343 3.12501 14.5322 3.25418 15.4676 3.49481C16.1545 3.03697 16.8983 2.67101 17.6801 2.40626C18.4062 2.15939 19.4405 1.75939 20.0551 2.4396C20.4718 2.9021 20.576 3.6771 20.6499 4.26876C20.7332 4.92918 20.753 5.7896 20.5343 6.64376C21.3707 7.72397 21.8749 9.01251 21.8749 10.4167C21.8749 12.5438 20.7228 14.3906 19.0176 15.6698C18.197 16.2777 17.2868 16.7542 16.3197 17.0823C16.5426 17.5927 16.6666 18.1573 16.6666 18.75V21.875C16.6666 22.1513 16.5568 22.4162 16.3615 22.6116C16.1661 22.8069 15.9012 22.9167 15.6249 22.9167H9.37491C9.09865 22.9167 8.83369 22.8069 8.63834 22.6116C8.44299 22.4162 8.33325 22.1513 8.33325 21.875V20.8427C7.33846 20.9646 6.50408 20.8563 5.79471 20.5552C5.05304 20.2406 4.53637 19.7531 4.14783 19.2865C3.77908 18.8448 3.377 17.849 2.79575 17.6552C2.66593 17.612 2.5459 17.5436 2.4425 17.454C2.33911 17.3644 2.25438 17.2553 2.19315 17.1329C2.0695 16.8858 2.04907 16.5997 2.13637 16.3375C2.22367 16.0753 2.41155 15.8586 2.65866 15.7349C2.90578 15.6113 3.1919 15.5908 3.45408 15.6781C4.14783 15.9094 4.59991 16.4094 4.90929 16.8115C5.40929 17.4573 5.81554 18.3011 6.60721 18.6375C6.93325 18.7761 7.41137 18.8667 8.15929 18.7646L8.33325 18.7292C8.33524 18.1623 8.45329 17.6018 8.68012 17.0823C7.71302 16.7542 6.80284 16.2777 5.98221 15.6698C4.277 14.3906 3.12491 12.5448 3.12491 10.4167C3.12491 9.0146 3.62804 7.7271 4.46241 6.64793C4.24366 5.79376 4.26241 4.93126 4.34575 4.26981L4.35096 4.23022C4.427 3.62397 4.51554 2.91043 4.94054 2.4396C5.55512 1.75939 6.59054 2.16043 7.31554 2.40731L7.31658 2.40626Z" fill="black"/>
</g>
<defs>
<clipPath id="clip0_30_419">
<rect width="25" height="25" fill="white"/>
</clipPath>
</defs>
</svg>
