<svg width="59" height="31" viewBox="0 0 59 31" fill="none" xmlns="http://www.w3.org/2000/svg">
<path fill-rule="evenodd" clip-rule="evenodd" d="M36 0C31.5817 0 28 3.58172 28 8V23C28 27.4183 31.5817 31 36 31H51C55.4183 31 59 27.4183 59 23V8C59 3.58172 55.4183 0 51 0H36ZM52.5827 10H38.1295V12.0667H52.5827V10ZM38.1295 14.1333V16.2H52.5827V14.1333H38.1295ZM38.1295 18.2667V20.3333H52.5827V18.2667H38.1295ZM34.2973 11.7691C34.4949 11.9675 34.7399 12.0667 35.0324 12.0667C35.3242 12.0674 35.5692 11.9685 35.7674 11.7701C35.9656 11.5717 36.0647 11.3261 36.0647 11.0333C36.0654 10.7412 35.9667 10.496 35.7685 10.2976C35.5702 10.0992 35.3249 10 35.0324 10C34.7406 10.0007 34.4955 10.0999 34.2973 10.2976C34.0991 10.4953 34 10.7406 34 11.0333C34.0007 11.3254 34.0998 11.5707 34.2973 11.7691ZM34.2973 15.9024C34.4949 16.1008 34.7399 16.2 35.0324 16.2C35.3242 16.2007 35.5692 16.1018 35.7674 15.9034C35.9656 15.705 36.0647 15.4594 36.0647 15.1667C36.0654 14.8746 35.9667 14.6293 35.7685 14.4309C35.5702 14.2325 35.3249 14.1333 35.0324 14.1333C34.7406 14.134 34.4955 14.2332 34.2973 14.4309C34.0991 14.6286 34 14.8739 34 15.1667C34.0007 15.4588 34.0998 15.704 34.2973 15.9024ZM34.2973 20.0357C34.4949 20.2341 34.7399 20.3333 35.0324 20.3333C35.3242 20.334 35.5692 20.2352 35.7674 20.0368C35.9656 19.8384 36.0647 19.5928 36.0647 19.3C36.0654 19.0079 35.9667 18.7627 35.7685 18.5643C35.5702 18.3659 35.3249 18.2667 35.0324 18.2667C34.7406 18.2674 34.4955 18.3666 34.2973 18.5643C34.0991 18.762 34 19.0072 34 19.3C34.0007 19.5921 34.0998 19.8373 34.2973 20.0357Z" fill="#F8B0B0"/>
<path fill-rule="evenodd" clip-rule="evenodd" d="M12.8998 8.91806H3.86995C3.35676 8.91806 2.86459 9.12014 2.50172 9.47985C2.13884 9.83955 1.93498 10.3274 1.93498 10.8361V17.2642L3.17594 16.3691C3.56644 16.0878 4.0376 15.9381 4.52027 15.9417C5.00295 15.9454 5.47173 16.1024 5.85781 16.3895L7.05492 17.2795L10.1096 14.6837C10.5296 14.3272 11.0669 14.1359 11.6198 14.146C12.1726 14.1562 12.7024 14.3671 13.1088 14.7387L14.8348 16.3179V10.8361C14.8348 10.3274 14.6309 9.83955 14.2681 9.47985C13.9052 9.12014 13.413 8.91806 12.8998 8.91806ZM16.7698 18.5058V10.8361C16.7698 9.81872 16.3621 8.84299 15.6363 8.12357C14.9105 7.40416 13.9262 7 12.8998 7H3.86995C2.84358 7 1.85924 7.40416 1.13348 8.12357C0.407726 8.84299 0 9.81872 0 10.8361V19.7871C0 20.8045 0.407726 21.7802 1.13348 22.4996C1.85924 23.219 2.84358 23.6232 3.86995 23.6232H12.8998C13.9262 23.6232 14.9105 23.219 15.6363 22.4996C16.3621 21.7802 16.7698 20.8045 16.7698 19.7871V18.5058ZM14.8348 18.9278L11.7969 16.1479C11.7388 16.0948 11.6632 16.0648 11.5842 16.0634C11.5053 16.062 11.4286 16.0893 11.3686 16.1402L7.72442 19.2372L7.1349 19.7385L6.51442 19.2769L4.69554 17.9253C4.64046 17.8846 4.57373 17.8624 4.50504 17.862C4.43637 17.8615 4.36933 17.8828 4.3137 17.9227L1.93498 19.6349V19.7871C1.93498 20.2958 2.13884 20.7836 2.50172 21.1433C2.86459 21.503 3.35676 21.7051 3.86995 21.7051H12.8998C13.413 21.7051 13.9052 21.503 14.2681 21.1433C14.6309 20.7836 14.8348 20.2958 14.8348 19.7871V18.9278ZM7.7399 12.7542C7.7399 13.2629 7.53604 13.7507 7.17316 14.1105C6.81028 14.4702 6.31811 14.6722 5.80493 14.6722C5.29174 14.6722 4.79957 14.4702 4.43669 14.1105C4.07381 13.7507 3.86995 13.2629 3.86995 12.7542C3.86995 12.2455 4.07381 11.7576 4.43669 11.3979C4.79957 11.0382 5.29174 10.8361 5.80493 10.8361C6.31811 10.8361 6.81028 11.0382 7.17316 11.3979C7.53604 11.7576 7.7399 12.2455 7.7399 12.7542Z" fill="#EEE8DC"/>
</svg>
