<svg width="16" height="17" viewBox="0 0 16 17" fill="none" xmlns="http://www.w3.org/2000/svg">
<path d="M8.88748 1.7e-05L4.02956 0.021862C1.97375 0.319635 0.212367 1.66121 0.0567959 3.94996C0.00761383 4.16006 0.0318658 4.37338 0.0249067 4.56857C0.00249541 5.56874 0.00787218 6.64477 0.0223878 7.6745C0.026263 9.29943 -0.0193184 10.6087 0.00974516 11.8168C0.028362 15.3667 2.01883 17.0257 5.63336 16.9566C6.52884 16.9394 7.55278 16.9333 8.72705 16.9656C9.89494 16.9739 10.7953 17.0549 11.5976 16.9347C15.1607 16.4009 15.8553 13.8847 16 11.8477V9.51492C15.896 7.14523 14.2641 6.49282 12.8689 6.4447C13.0188 5.85233 13.0549 5.04697 12.9235 3.9622C12.7544 1.85436 11.3336 0.206244 8.88748 0V1.7e-05ZM4.82513 3.18321H8.77715C10.9622 3.48961 10.8593 5.97009 8.77715 6.3259H4.82513C2.6401 6.01949 2.743 3.53902 4.82513 3.18321ZM3.92784 10.0478L11.1881 10.0739C13.3837 10.372 13.3898 13.1861 11.2646 13.5304L4.00426 13.5038C1.75274 13.2123 1.78434 10.3951 3.92784 10.0478Z" fill="black"/>
</svg>
