<svg width="59" height="31" viewBox="0 0 59 31" fill="none" xmlns="http://www.w3.org/2000/svg">
<path d="M44.1295 12.0667V10H58.5827V12.0667H44.1295ZM44.1295 16.2V14.1333H58.5827V16.2H44.1295ZM44.1295 20.3333V18.2667H58.5827V20.3333H44.1295ZM41.0324 12.0667C40.7399 12.0667 40.4949 11.9675 40.2973 11.7691C40.0998 11.5707 40.0007 11.3254 40 11.0333C40 10.7406 40.0991 10.4953 40.2973 10.2976C40.4955 10.0999 40.7406 10.0007 41.0324 10C41.3249 10 41.5702 10.0992 41.7685 10.2976C41.9667 10.496 42.0654 10.7412 42.0647 11.0333C42.0647 11.3261 41.9656 11.5717 41.7674 11.7701C41.5692 11.9685 41.3242 12.0674 41.0324 12.0667ZM41.0324 16.2C40.7399 16.2 40.4949 16.1008 40.2973 15.9024C40.0998 15.704 40.0007 15.4588 40 15.1667C40 14.8739 40.0991 14.6286 40.2973 14.4309C40.4955 14.2332 40.7406 14.134 41.0324 14.1333C41.3249 14.1333 41.5702 14.2325 41.7685 14.4309C41.9667 14.6293 42.0654 14.8746 42.0647 15.1667C42.0647 15.4594 41.9656 15.705 41.7674 15.9034C41.5692 16.1018 41.3242 16.2007 41.0324 16.2ZM41.0324 20.3333C40.7399 20.3333 40.4949 20.2341 40.2973 20.0357C40.0998 19.8373 40.0007 19.5921 40 19.3C40 19.0072 40.0991 18.762 40.2973 18.5643C40.4955 18.3666 40.7406 18.2674 41.0324 18.2667C41.3249 18.2667 41.5702 18.3659 41.7685 18.5643C41.9667 18.7627 42.0654 19.0079 42.0647 19.3C42.0647 19.5928 41.9656 19.8384 41.7674 20.0368C41.5692 20.2352 41.3242 20.334 41.0324 20.3333Z" fill="#EEE8DC"/>
<path fill-rule="evenodd" clip-rule="evenodd" d="M8 0C3.58172 0 0 3.58172 0 8V23C0 27.4183 3.58172 31 8 31H23C27.4183 31 31 27.4183 31 23V8C31 3.58172 27.4183 0 23 0H8ZM11.2323 9.21533H20.5632C21.0935 9.21533 21.602 9.42415 21.977 9.79584C22.352 10.1675 22.5626 10.6717 22.5626 11.1973V16.8619L20.7791 15.23C20.3592 14.846 19.8117 14.628 19.2404 14.6176C18.6692 14.6071 18.1139 14.8048 17.6799 15.1732L14.5234 17.8555L13.2864 16.9359C12.8875 16.6391 12.4031 16.4769 11.9043 16.4731C11.4055 16.4693 10.9187 16.6241 10.5151 16.9147L9.23281 17.8397V11.1973C9.23281 10.6717 9.44347 10.1675 9.81844 9.79584C10.1934 9.42415 10.702 9.21533 11.2323 9.21533ZM24.5621 11.1973V19.1227V20.4466C24.5621 21.498 24.1408 22.5062 23.3908 23.2496C22.6409 23.993 21.6237 24.4106 20.5632 24.4106H11.2323C10.1717 24.4106 9.15455 23.993 8.4046 23.2496C7.65465 22.5062 7.23333 21.498 7.23333 20.4466V11.1973C7.23333 10.146 7.65465 9.13775 8.4046 8.39436C9.15455 7.65097 10.1717 7.23333 11.2323 7.23333H20.5632C21.6237 7.23333 22.6409 7.65097 23.3908 8.39436C24.1408 9.13775 24.5621 10.146 24.5621 11.1973ZM19.4235 16.6861L22.5626 19.5587V20.4466C22.5626 20.9723 22.352 21.4764 21.977 21.8481C21.602 22.2198 21.0935 22.4286 20.5632 22.4286H11.2323C10.702 22.4286 10.1934 22.2198 9.81844 21.8481C9.44347 21.4764 9.23281 20.9723 9.23281 20.4466V20.2894L11.6908 18.5201C11.7483 18.4789 11.8176 18.4569 11.8885 18.4574C11.9595 18.4578 12.0285 18.4807 12.0854 18.5228L13.9649 19.9194L14.6061 20.3964L15.2152 19.8785L18.9809 16.6782C19.0429 16.6256 19.1221 16.5974 19.2037 16.5988C19.2853 16.6003 19.3635 16.6313 19.4235 16.6861ZM14.6456 14.5808C15.0206 14.2091 15.2312 13.705 15.2312 13.1793C15.2312 12.6537 15.0206 12.1495 14.6456 11.7778C14.2706 11.4061 13.762 11.1973 13.2318 11.1973C12.7015 11.1973 12.1929 11.4061 11.8179 11.7778C11.4429 12.1495 11.2323 12.6537 11.2323 13.1793C11.2323 13.705 11.4429 14.2091 11.8179 14.5808C12.1929 14.9525 12.7015 15.1613 13.2318 15.1613C13.762 15.1613 14.2706 14.9525 14.6456 14.5808Z" fill="#89A5D1"/>
</svg>
